solid OpenSCAD_Model
  facet normal -1 0 0
    outer loop
      vertex 0 5 -5.5
      vertex 0 14 -16
      vertex 0 5 -10.5
    endloop
  endfacet
  facet normal -1 0 0
    outer loop
      vertex 0 14 -16
      vertex 0 -5 -10.5
      vertex 0 5 -10.5
    endloop
  endfacet
  facet normal -1 -0 0
    outer loop
      vertex 0 -5 -10.5
      vertex 0 -14 -16
      vertex 0 -5 -5.5
    endloop
  endfacet
  facet normal -1 0 0
    outer loop
      vertex 0 -14 -16
      vertex 0 -5 -10.5
      vertex 0 14 -16
    endloop
  endfacet
  facet normal -1 0 0
    outer loop
      vertex 0 14 -16
      vertex 0 5 -5.5
      vertex 0 14 16
    endloop
  endfacet
  facet normal -1 0 0
    outer loop
      vertex 0 -5 -5.5
      vertex 0 14 16
      vertex 0 5 -5.5
    endloop
  endfacet
  facet normal -1 0 0
    outer loop
      vertex 0 -5 -5.5
      vertex 0 -14 16
      vertex 0 14 16
    endloop
  endfacet
  facet normal -1 0 0
    outer loop
      vertex 0 -14 16
      vertex 0 -5 -5.5
      vertex 0 -14 -16
    endloop
  endfacet
  facet normal 0 0 -1
    outer loop
      vertex 0 -14 -16
      vertex 2 14 -16
      vertex 2 -14 -16
    endloop
  endfacet
  facet normal -0 0 -1
    outer loop
      vertex 2 14 -16
      vertex 0 -14 -16
      vertex 0 14 -16
    endloop
  endfacet
  facet normal 0 -1 0
    outer loop
      vertex 2 -14 -16
      vertex 0 -14 16
      vertex 0 -14 -16
    endloop
  endfacet
  facet normal 0 -1 0
    outer loop
      vertex 0 -14 16
      vertex 2 -14 -16
      vertex 6 -14 16
    endloop
  endfacet
  facet normal 0.992278 0 -0.124035
    outer loop
      vertex 6 14 16
      vertex 3.3125 5 -5.5
      vertex 2 14 -16
    endloop
  endfacet
  facet normal 0.992278 0 -0.124035
    outer loop
      vertex 6 14 16
      vertex 3.3125 -5 -5.5
      vertex 3.3125 5 -5.5
    endloop
  endfacet
  facet normal 0.992278 0 -0.124035
    outer loop
      vertex 2 -14 -16
      vertex 3.3125 -5 -5.5
      vertex 6 -14 16
    endloop
  endfacet
  facet normal 0.992278 0 -0.124035
    outer loop
      vertex 6 -14 16
      vertex 3.3125 -5 -5.5
      vertex 6 14 16
    endloop
  endfacet
  facet normal 0.992278 0 -0.124035
    outer loop
      vertex 2.6875 5 -10.5
      vertex 2 14 -16
      vertex 3.3125 5 -5.5
    endloop
  endfacet
  facet normal 0.992278 0 -0.124035
    outer loop
      vertex 2.6875 -5 -10.5
      vertex 2 14 -16
      vertex 2.6875 5 -10.5
    endloop
  endfacet
  facet normal 0.992278 0 -0.124035
    outer loop
      vertex 2.6875 -5 -10.5
      vertex 2 -14 -16
      vertex 2 14 -16
    endloop
  endfacet
  facet normal 0.992278 0 -0.124035
    outer loop
      vertex 3.3125 -5 -5.5
      vertex 2 -14 -16
      vertex 2.6875 -5 -10.5
    endloop
  endfacet
  facet normal 0 1 -0
    outer loop
      vertex 2 14 -16
      vertex 0 14 16
      vertex 6 14 16
    endloop
  endfacet
  facet normal 0 1 0
    outer loop
      vertex 0 14 16
      vertex 2 14 -16
      vertex 0 14 -16
    endloop
  endfacet
  facet normal -0 0 1
    outer loop
      vertex 0 14 16
      vertex 6 -14 16
      vertex 6 14 16
    endloop
  endfacet
  facet normal 0 0 1
    outer loop
      vertex 6 -14 16
      vertex 0 14 16
      vertex 0 -14 16
    endloop
  endfacet
  facet normal 0 0 -1
    outer loop
      vertex 0 -5 -5.5
      vertex 3.3125 5 -5.5
      vertex 3.3125 -5 -5.5
    endloop
  endfacet
  facet normal -0 0 -1
    outer loop
      vertex 3.3125 5 -5.5
      vertex 0 -5 -5.5
      vertex 0 5 -5.5
    endloop
  endfacet
  facet normal -0 0 1
    outer loop
      vertex 0 5 -10.5
      vertex 2.6875 -5 -10.5
      vertex 2.6875 5 -10.5
    endloop
  endfacet
  facet normal 0 0 1
    outer loop
      vertex 2.6875 -5 -10.5
      vertex 0 5 -10.5
      vertex 0 -5 -10.5
    endloop
  endfacet
  facet normal 0 -1 0
    outer loop
      vertex 2.6875 5 -10.5
      vertex 0 5 -5.5
      vertex 0 5 -10.5
    endloop
  endfacet
  facet normal 0 -1 0
    outer loop
      vertex 0 5 -5.5
      vertex 2.6875 5 -10.5
      vertex 3.3125 5 -5.5
    endloop
  endfacet
  facet normal 0 1 -0
    outer loop
      vertex 2.6875 -5 -10.5
      vertex 0 -5 -5.5
      vertex 3.3125 -5 -5.5
    endloop
  endfacet
  facet normal 0 1 0
    outer loop
      vertex 0 -5 -5.5
      vertex 2.6875 -5 -10.5
      vertex 0 -5 -10.5
    endloop
  endfacet
endsolid OpenSCAD_Model
